# xmcd
#
# Track frame offsets:
#	150
#	14355
#	25335
#
# Disc length: 519 seconds
#
# Revision: 0
# Processed by: cddbd v1.5.2PL0 Copyright (c) Steve Scherf et al.
# Submitted via: FairStars CD Ripper 1.90
#
DISCID=1a020503
DTITLE=Jason Loban - Tough Love EP
DYEAR=2014
DGENRE=Country
TTITLE0=Tough Love
TTITLE1=Three Chords one Heart
TTITLE2=Nashville Lights
EXTD=
EXTT0=
EXTT1=
EXTT2=
PLAYORDER=
